<?xml version="1.0" encoding="iso-8859-1"?>
<!-- Generator: Adobe Illustrator 19.0.0, SVG Export Plug-In . SVG Version: 6.00 Build 0)  -->
<svg xmlns="http://www.w3.org/2000/svg" xmlns:xlink="http://www.w3.org/1999/xlink" version="1.1" id="Layer_1" x="0px" y="0px" viewBox="0 0 512 512" style="enable-background:new 0 0 512 512;" xml:space="preserve" width="512" height="512">
<path d="M346.001,114c-5.147,0-10.29-1.973-14.201-5.916l-61.653-62.162C266.358,42.103,261.335,40,256,40  s-10.358,2.103-14.146,5.922L180.2,108.084c-7.778,7.842-20.44,7.895-28.284,0.116c-7.843-7.778-7.895-20.442-0.116-28.284  l61.653-62.162C224.809,6.305,239.919,0,256,0s31.191,6.305,42.547,17.754L360.2,79.916c7.778,7.842,7.727,20.506-0.116,28.284  C356.185,112.068,351.091,114,346.001,114z M298.547,494.246l61.653-62.162c7.778-7.842,7.727-20.506-0.116-28.284  c-7.844-7.778-20.506-7.726-28.284,0.116l-61.653,62.162C266.358,469.897,261.335,472,256,472s-10.358-2.103-14.146-5.922  L180.2,403.916c-7.778-7.841-20.44-7.895-28.284-0.116c-7.843,7.778-7.895,20.442-0.116,28.284l61.653,62.162  C224.809,505.695,239.919,512,256,512S287.191,505.695,298.547,494.246z M325,255c0-38.598-31.402-70-70-70s-70,31.402-70,70  s31.402,70,70,70S325,293.598,325,255z M285,255c0,16.542-13.458,30-30,30s-30-13.458-30-30s13.458-30,30-30S285,238.458,285,255z"/>















</svg>
